<?xml version="1.0" encoding="UTF-8" standalone="no"?>
<svg width="292px" height="197px" viewBox="0 0 292 197" version="1.1" xmlns="http://www.w3.org/2000/svg" xmlns:xlink="http://www.w3.org/1999/xlink" xmlns:sketch="http://www.bohemiancoding.com/sketch/ns">
    <!-- Generator: Sketch 3.4 (15575) - http://www.bohemiancoding.com/sketch -->
    <title>noservice</title>
    <desc>Created with Sketch.</desc>
    <defs></defs>
    <g id="切图" stroke="none" stroke-width="1" fill="none" fill-rule="evenodd" sketch:type="MSPage">
        <g id="noservice" sketch:type="MSArtboardGroup">
            <g id="Imported-Layers-Copy-+-您的定位暂不支持配送，点此更改配送地，" sketch:type="MSLayerGroup" transform="translate(17.000000, 2.000000)">
                <g id="Imported-Layers-Copy" transform="translate(0.086185, -0.000000)" sketch:type="MSShapeGroup">
                    <path d="M257.1584,93.8842386 C257.1584,145.479128 199.716279,187.304714 128.856803,187.304714 C57.9978866,187.304714 0.555204745,145.479128 0.555204745,93.8842386 C0.555204745,42.2899096 57.9978866,0.463762948 128.856803,0.463762948 C199.716279,0.463762948 257.1584,42.2899096 257.1584,93.8842386" id="Fill-1" fill="#2FC8E6"></path>
                    <path d="M98.1093285,36.7326051 C98.1093285,41.0169448 94.6391588,44.4898395 90.3583117,44.4898395 L11.9298989,44.4898395 C7.64905185,44.4898395 4.17944238,41.0169448 4.17944238,36.7326051 C4.17944238,32.4482654 7.64905185,28.9748099 11.9298989,28.9748099 L90.3583117,28.9748099 C94.6391588,28.9748099 98.1093285,32.4482654 98.1093285,36.7326051" id="Fill-2" fill="#FFFFFF"></path>
                    <path d="M120.497358,36.7326051 C120.497358,41.0169448 117.027748,44.4898395 112.747461,44.4898395 C108.466614,44.4898395 104.997005,41.0169448 104.997005,36.7326051 C104.997005,32.4482654 108.466614,28.9748099 112.747461,28.9748099 C117.027748,28.9748099 120.497358,32.4482654 120.497358,36.7326051" id="Fill-3" fill="#FFFFFF"></path>
                    <path d="M142.899953,36.7326051 C142.899953,41.0169448 139.429223,44.4898395 135.148936,44.4898395 C130.868649,44.4898395 127.3996,41.0169448 127.3996,36.7326051 C127.3996,32.4482654 130.868649,28.9748099 135.148936,28.9748099 C139.429223,28.9748099 142.899953,32.4482654 142.899953,36.7326051" id="Fill-4" fill="#FFFFFF"></path>
                    <path d="M55.8807133,30.1249644 C55.8807133,43.3105245 45.2012856,54.0000642 32.0281987,54.0000642 C18.8545515,54.0000642 8.175684,43.3105245 8.175684,30.1249644 C8.175684,16.9388436 18.8545515,6.24986464 32.0281987,6.24986464 C45.2012856,6.24986464 55.8807133,16.9388436 55.8807133,30.1249644" id="Fill-5" fill="#FCD832"></path>
                    <path d="M43.7614509,18.225267 L43.7614509,18.225267 C37.2345737,11.6540769 26.6285384,11.6540769 20.0630042,18.225267 C13.4974699,24.7975787 13.5350065,35.4523502 20.101101,42.0241011 C26.6671954,48.5964128 37.2541824,48.5952912 43.8191563,42.0241011 C50.3846906,35.4523502 50.6496874,24.7975787 43.7614509,18.225267" id="Fill-6" fill="#FFFFC0"></path>
                    <path d="M139.693099,160.654327 L187.182994,160.654327 L187.182994,189.482213 L139.693099,189.482213 L139.693099,160.654327 Z" id="Fill-7" fill="#E2E2E2"></path>
                    <path d="M183.90723,145.149391 L193.373723,160.628531 L139.693099,160.628531 L139.693099,145.149391 L183.90723,145.149391" id="Fill-8" fill="#ED3E44"></path>
                    <path d="M168.969365,169.284692 L180.230329,169.284692 L180.230329,189.482213 L168.969365,189.482213 L168.969365,169.284692 Z" id="Fill-9" fill="#78716C"></path>
                    <path d="M189.696262,171.484061 L203.105773,171.484061 L203.105773,189.771013 L189.696262,189.771013 L189.696262,171.484061 Z" id="Fill-10" fill="#935D0F"></path>
                    <path d="M234.129449,138.23108 C234.129449,159.743063 216.616689,177.185485 195.018608,177.185485 C173.412684,177.185485 155.906647,159.743063 155.906647,138.23108 C155.906647,116.710685 173.412684,99.2761137 195.018608,99.2761137 C216.616689,99.2761137 234.129449,116.710685 234.129449,138.23108" id="Fill-11" fill="#1AB858"></path>
                    <path d="M215.001497,138.23108 C215.001497,149.223439 206.059955,158.142044 195.018608,158.142044 C183.976701,158.142044 175.035719,149.223439 175.035719,138.23108 C175.035719,127.23816 183.976701,118.327406 195.018608,118.327406 C206.059955,118.327406 215.001497,127.23816 215.001497,138.23108" id="Fill-12" fill="#56DA75"></path>
                    <path d="M145.535915,169.286374 L159.768989,169.286374 L159.768989,180.096481 L145.535915,180.096481 L145.535915,169.286374 Z" id="Fill-13" fill="#458C98"></path>
                    <path d="M145.484933,128.790952 C145.484933,128.790952 126.915547,147.402034 132.153856,154.091548 C137.392165,160.781063 139.342945,161.577366 144.136418,156.32176 C148.929331,151.066154 156.335236,134.733511 156.335236,134.733511 L145.484933,128.790952" id="Fill-14" fill="#B5333D"></path>
                    <path d="M147.506864,152.466415 L141.850611,151.053817 L176.630742,16.9741725 L182.288676,18.3867709 L147.506864,152.466415" id="Fill-15" fill="#EFAC13"></path>
                    <path d="M211.080328,98.7052423 L109.47898,73.3412784 L124.524413,12.9584452 L226.126321,38.3218484 L211.080328,98.7052423" id="Fill-16" fill="#E5DEBE"></path>
                    <path d="M209.945268,96.4929753 L111.51996,71.9202683 L126.113273,13.3543541 L224.538581,37.9265003 L209.945268,96.4929753" id="Fill-17" fill="#FCF9E6"></path>
                    <path d="M129.274747,61.11633 C130.553791,61.9401121 131.693333,62.7179104 132.693374,63.4502858 C132.544908,63.8405869 131.999228,64.7697951 131.055772,66.2379104 C130.319607,67.383018 129.847879,68.0133318 129.640588,68.1299736 C129.085944,67.9639834 128.194591,67.4856403 126.96765,66.6955048 C125.740709,65.9048086 124.928911,65.2352404 124.532256,64.6851177 C124.742909,64.1736887 125.080178,63.5585158 125.541821,62.8407207 C126.076857,62.0079662 126.633182,61.2111014 127.211357,60.4490049 C127.404082,60.5151766 127.604651,60.6144342 127.812502,60.7490208 C128.000185,60.8690272 128.152572,60.9968844 128.271905,61.1325926 C127.456745,62.4919171 126.731786,63.6656243 126.095906,64.6542749 C126.253335,64.8438177 126.748033,65.2072015 127.58,65.742744 C128.370508,66.2519299 128.879212,66.5575536 129.107233,66.6607366 C129.34982,66.3753009 129.624901,65.9928507 129.933037,65.5145075 C130.254059,65.0148548 130.621581,64.4193092 131.035603,63.7295529 C130.152094,63.159803 129.371109,62.5911747 128.69265,62.0219856 C128.717861,61.8913245 128.800778,61.7163619 128.9414,61.4976587 C129.05513,61.3210138 129.166059,61.1937173 129.274747,61.11633 L129.274747,61.11633 Z M130.006429,54.5227088 C133.937122,57.2604243 137.845965,60.0435628 141.734079,62.8710027 C141.682536,63.0880235 141.590096,63.3005582 141.456757,63.5086066 C141.355912,63.6650635 141.217531,63.8119872 141.041614,63.9482561 C136.977582,61.2570852 133.062016,58.4846015 129.293795,55.6313658 C129.368868,55.4003255 129.46355,55.1956417 129.57728,55.0189969 C129.697733,54.8316972 129.840596,54.6662678 130.006429,54.5227088 L130.006429,54.5227088 Z M137.321014,65.4814217 C136.49521,67.864165 135.477801,70.0865261 134.269909,72.1490655 C133.785295,72.1019602 132.986943,71.7200708 131.874293,71.0033972 C131.98242,70.7202046 132.127524,70.4381335 132.307924,70.157184 C132.688332,70.3433621 133.087227,70.5340265 133.505732,70.7297378 C134.451989,68.7782323 135.365752,66.8642989 136.247581,64.9890591 C136.568602,65.1079439 136.9266,65.2716909 137.321014,65.4814217 L137.321014,65.4814217 Z" id="Fill-18" fill="#ED3E44"></path>
                    <path d="M144.814877,64.2050922 L145.4121,64.5039866 C145.66085,64.2000452 145.907359,63.9011508 146.150506,63.6078642 C146.404858,63.7631996 146.695066,63.9706872 147.02169,64.230888 C146.827845,64.5073512 146.628397,64.7815714 146.423907,65.0524269 C146.617192,65.1634609 146.810477,65.2744948 147.004322,65.384968 C147.231222,65.0417722 147.457562,64.7125958 147.685022,64.3974389 C148.016689,64.563429 148.301294,64.7266152 148.539399,64.8875584 C148.361801,65.2419697 148.17916,65.5930164 147.990917,65.94182 C148.582538,66.2799688 149.165755,66.6209214 149.741129,66.9641172 C149.17584,68.2039962 148.672738,69.2661087 148.229582,70.1515762 C147.255313,72.0997171 146.696187,73.1623904 146.552203,73.339596 C145.579054,73.1007048 144.334746,72.6016129 142.820398,71.842881 C141.592897,71.2277082 140.705466,70.6932873 140.158104,70.2390575 C140.590055,68.8500118 141.478607,66.7829861 142.823759,64.0379805 L143.852373,64.553335 C143.326301,65.7707828 142.795187,66.9579487 142.25791,68.1142718 L142.854573,68.4137269 C143.319578,68.6464496 143.66469,68.854498 143.89159,69.0373115 C143.86918,69.1915253 143.813716,69.3580762 143.725197,69.5347211 C143.647883,69.6900564 143.564966,69.8280077 143.476447,69.9502571 C143.221535,69.8504388 142.823759,69.6648214 142.282001,69.3934051 L141.784501,69.1438592 C141.69038,69.3597585 141.590656,69.5728539 141.48589,69.7825847 C141.933527,70.0764321 142.538594,70.4145809 143.30165,70.7964703 C144.418222,71.356687 145.29781,71.7419411 145.939293,71.9522326 C146.243507,71.2882721 146.542679,70.6630053 146.835688,70.0764321 C146.061427,69.660896 145.43451,69.2700341 144.953258,68.904968 C145.396414,68.0189396 145.869262,67.1699226 146.373484,66.3562345 C146.157229,66.2345458 145.947136,66.1151002 145.743206,65.9990193 C145.212092,66.7016734 144.658008,67.4071314 144.082634,68.1153933 C143.629395,67.8882785 143.328542,67.6336855 143.178956,67.3510537 C143.682618,66.6758776 144.194684,66.0119171 144.714593,65.3591722 C144.587417,65.2817849 144.465843,65.2072015 144.349872,65.1348612 L144.814877,64.2050922 L144.814877,64.2050922 Z M145.513505,60.7344406 C147.094522,61.5268191 148.88283,62.5681828 150.87899,63.8590925 C150.723802,64.1692024 150.524354,64.4849202 150.281207,64.8056849 C148.434633,63.8798413 146.670415,62.8440853 144.990235,61.6972955 L145.255792,61.1662392 C145.333666,61.0114646 145.419384,60.8673448 145.513505,60.7344406 L145.513505,60.7344406 Z M147.417785,66.9214982 C147.069311,67.4800325 146.70403,68.0447354 146.322502,68.615046 C146.615511,68.8029065 146.921966,69.0053471 147.242988,69.2212465 C147.558407,68.5628937 147.868223,67.9292152 148.172998,67.3202109 C147.90744,67.1878674 147.65589,67.0544024 147.417785,66.9214982 L147.417785,66.9214982 Z M150.294653,70.8334816 C150.134422,70.7398318 149.99324,70.6478643 149.871666,70.5592615 C149.904721,70.3826166 149.960185,70.2166264 150.03806,70.0612911 C150.154031,69.8285684 150.26496,69.6906172 150.370286,69.6463158 C151.591625,70.2452261 152.808481,70.8407717 154.019175,71.4335135 C154.434318,70.6030021 154.816406,69.7567889 155.16544,68.8931917 C153.926174,68.2174548 152.574858,67.4222724 151.109812,66.5082052 C151.325507,66.0764065 151.532799,65.7304069 151.732807,65.4702061 C153.081321,66.1465037 154.797918,67.138519 156.882597,68.4456913 C156.7543,68.9767475 156.45905,69.7074405 155.993485,70.6372095 C155.423154,71.7778308 154.994004,72.4967475 154.706598,72.7956419 C154.313865,72.8618136 153.642128,72.6560083 152.691389,72.1799083 C152.204535,71.9359701 151.778747,71.709416 151.414026,71.4985637 C150.871707,72.5831073 150.545083,73.1949155 150.434715,73.3328667 C150.849297,73.6379296 151.493021,74.0366424 152.367006,74.5295658 C152.161956,74.9394941 151.984918,75.2518471 151.835332,75.4677464 C151.619637,75.4290528 151.086282,75.1957694 150.234706,74.7690177 C149.593224,74.4202142 149.134381,74.0932809 148.85818,73.7887788 C148.7691,73.7444774 149.010567,73.1528571 149.580898,72.0122358 C149.746731,71.6802556 149.984836,71.2877114 150.294653,70.8334816 L150.294653,70.8334816 Z" id="Fill-19" fill="#ED3E44"></path>
                    <path d="M157.480941,65.6603097 C158.807045,65.9289221 159.988606,66.2199656 161.023942,66.5317578 C160.70012,67.4547975 160.321953,68.297646 159.891123,69.0603033 C160.431201,69.2436776 160.961755,69.4511652 161.484465,69.6822055 C161.352807,70.3153233 161.053636,71.1234036 160.58639,72.1058857 C162.212226,72.4821673 163.610042,72.7833048 164.779278,73.0104197 C164.76079,73.1831391 164.729976,73.3480077 164.688518,73.5050254 C164.663867,73.7265325 164.58039,73.9222438 164.437527,74.0938417 C162.5607,73.8515858 160.81441,73.4377321 159.199218,72.8511589 C159.399226,72.1507478 159.696157,71.3673418 160.08889,70.5009406 C159.397546,70.2267204 158.763906,69.9900723 158.188533,69.7904356 C158.551012,68.9705789 158.93142,68.159134 159.330316,67.3555399 C158.656339,67.1452484 157.975639,66.9411254 157.288216,66.7414886 C157.277011,66.6153137 157.284294,66.4358649 157.309505,66.2020207 C157.325752,66.0539754 157.382897,65.8734051 157.480941,65.6603097 L157.480941,65.6603097 Z M159.766748,62.1363842 C160.507395,62.3051782 161.297343,62.6461309 162.137153,63.1603638 C162.008296,63.5450572 161.820053,63.9039547 161.571864,64.2381781 C160.668746,64.0777957 159.896165,63.7508625 159.253562,63.2573783 C159.396985,62.8496931 159.568421,62.4762153 159.766748,62.1363842 L159.766748,62.1363842 Z M164.136675,64.1624731 C166.589996,64.4798732 169.02651,64.8942877 171.446217,65.4073991 C171.405879,65.7763906 171.323523,66.1285588 171.200268,66.463343 C170.106106,66.3444582 169.020908,66.2014599 167.944673,66.0343482 C167.686399,66.5788631 167.332884,67.31236 166.884686,68.2348389 C168.328442,68.3419474 169.799651,68.4776556 171.299992,68.6408418 C171.308396,68.7911302 171.301113,68.9711397 171.278143,69.1803097 L171.216516,69.7523027 C169.530732,69.6934211 167.879685,69.6065006 166.262812,69.4926627 C165.877922,70.2850413 165.445412,71.1721912 164.96584,72.152991 C164.543414,72.0324238 164.176452,71.8619475 163.864395,71.6404404 C164.129391,70.9226452 164.441449,70.1655957 164.801688,69.370974 C164.001095,69.2963906 163.220111,69.217321 162.458175,69.134326 C162.42568,68.7451464 162.430723,68.3537238 162.473301,67.9594972 C163.426842,68.0015555 164.391027,68.0565117 165.366417,68.1254873 C165.733378,67.3807749 166.134515,66.6091451 166.569827,65.8094765 C165.679035,65.6507765 164.789362,65.4791786 163.901931,65.2952436 C163.94451,64.901017 164.022945,64.5236138 164.136675,64.1624731 L164.136675,64.1624731 Z M165.834783,60.3884409 C166.078491,60.8880936 166.293065,61.3720445 166.478507,61.8402937 C166.687479,62.3236839 166.863397,62.7666981 167.00626,63.1676539 C166.661147,63.3667299 166.287463,63.4878579 165.884645,63.5310377 C165.35129,62.6018295 164.950153,61.6557979 164.681795,60.6923823 C165.095257,60.5505056 165.479026,60.4495656 165.834783,60.3884409 L165.834783,60.3884409 Z M167.858395,70.4325258 C168.736302,70.9389078 169.554823,71.5882881 170.314518,72.3806666 C170.131317,72.6969451 169.892652,72.9453695 169.599643,73.1242575 C168.702127,72.5662839 167.913299,71.9264369 167.23316,71.2047163 C167.427565,70.9024573 167.636537,70.6450604 167.858395,70.4325258 L167.858395,70.4325258 Z M170.622654,60.9660417 C170.961603,61.1645569 171.27198,61.4040089 171.552104,61.683276 C170.895494,62.4582705 170.174456,63.2018614 169.387869,63.9129272 C169.008022,63.7474978 168.704368,63.5086066 168.476908,63.1973751 C169.11671,62.346115 169.832145,61.6019633 170.622654,60.9660417 L170.622654,60.9660417 Z" id="Fill-20" fill="#ED3E44"></path>
                    <path d="M178.397201,74.3832029 C178.53054,74.758363 178.574799,75.1559542 178.528859,75.5742942 C176.622339,75.9516974 174.725903,76.2309645 172.840672,76.4109741 C172.708453,76.0229161 172.638422,75.6359797 172.631139,75.2490432 C174.42449,74.8845379 176.346697,74.5957375 178.397201,74.3832029 L178.397201,74.3832029 Z M179.571479,69.0760051 C179.703137,69.4640631 179.746836,69.8672621 179.701456,70.2850413 C177.556831,70.6747816 175.412205,70.9512449 173.267019,71.1161135 C173.134801,70.7280555 173.065891,70.3349505 173.059728,69.9356769 C175.090623,69.5593953 177.26102,69.272838 179.571479,69.0760051 L179.571479,69.0760051 Z M176.274985,76.9162346 C176.337733,78.1678899 176.339974,79.4632858 176.281708,80.8013007 C175.89962,80.8842958 175.493441,80.9022407 175.063171,80.8556962 C174.967369,79.5625434 174.934875,78.2576142 174.966249,76.9414696 C175.408283,76.8775409 175.844156,76.8691293 176.274985,76.9162346 L176.274985,76.9162346 Z M180.454428,75.3729751 C182.544149,75.6000899 184.966097,75.9763716 187.720271,76.5001377 C187.680493,76.8696901 187.600378,77.2594304 187.481606,77.6699195 C186.621066,77.5757089 185.774533,77.4652357 184.942566,77.3368177 C184.945928,78.7942783 184.892704,80.2579074 184.782336,81.7271443 C184.559918,81.8275235 184.209203,81.8516369 183.729632,81.7994846 C183.22597,81.7445284 182.847243,81.6783567 182.594571,81.6009694 C182.549191,81.3340393 182.539667,81.0788856 182.566559,80.8321435 C182.940244,80.8231711 183.293199,80.8366297 183.625426,80.8725195 C183.562118,79.6208642 183.59069,78.3849107 183.711143,77.1657806 C182.549751,76.9767986 181.410769,76.7592169 180.293077,76.5130356 L180.360867,75.8855256 C180.379915,75.713367 180.410729,75.5423298 180.454428,75.3729751 L180.454428,75.3729751 Z M184.854608,70.9400293 C186.034488,71.0684474 186.976263,71.2148103 187.679933,71.3785573 C187.705144,71.4935167 187.702903,71.6864241 187.67321,71.9567189 C187.642396,72.2404722 187.6043,72.4227249 187.557799,72.5045984 C187.365074,72.5584331 186.414895,72.4922613 184.706142,72.3060832 C182.554233,72.072239 181.384438,71.9068097 181.196195,71.8114775 C181.174905,71.6600676 181.177707,71.4609916 181.204599,71.2153711 C181.228689,70.9933032 181.281352,70.7936664 181.363148,70.6159 C182.411931,70.6927265 183.575564,70.8009565 184.854608,70.9400293 L184.854608,70.9400293 Z" id="Fill-21" fill="#ED3E44"></path>
                    <path d="M192.324941,70.1941953 C194.583296,70.5895434 196.772741,71.0460163 198.893276,71.5636139 C198.862462,71.8468065 198.782347,72.1804691 198.654051,72.5646016 C197.448959,72.4328189 196.232663,72.2331821 195.006283,71.9623266 C194.57041,72.649279 194.085797,73.3311844 193.552442,74.007482 C194.983873,74.2256244 196.42987,74.5385382 197.890994,74.9467842 C196.934653,77.2212975 195.410221,79.7442353 193.317698,82.5167189 C192.894151,82.2963334 192.559684,82.0484698 192.316537,81.7725673 C192.873983,80.8747626 193.425826,79.9763971 193.971506,79.0769101 C193.170353,78.666421 192.433628,78.1746192 191.761892,77.6037477 C191.927725,77.2235406 192.109245,76.8696901 192.306452,76.542196 C193.019087,76.9683869 193.779902,77.4624318 194.590019,78.02377 C195.030373,77.2869085 195.464565,76.5567762 195.891473,75.8305695 C194.735683,75.5933606 193.654967,75.3511047 192.649324,75.1043627 C192.095239,75.7408451 191.490733,76.3790098 190.836364,77.0171745 C190.513102,76.9072621 190.271635,76.7255703 190.112525,76.4715381 C191.044216,74.8794909 192.262753,73.281836 193.768697,71.6774517 C193.198366,71.5411828 192.642601,71.3931375 192.099721,71.2344375 C192.1423,70.8407717 192.217933,70.4942113 192.324941,70.1941953 L192.324941,70.1941953 Z M200.635644,74.9282785 C200.635084,76.5343451 200.60259,78.0933064 200.537601,79.6057232 C200.135904,79.636566 199.738689,79.6298367 199.345395,79.5872176 C199.254635,78.0215269 199.256316,76.459201 199.351558,74.9002397 C199.76502,74.8710792 200.193049,74.8800517 200.635644,74.9282785 L200.635644,74.9282785 Z M204.213381,73.5997968 C204.32375,76.3638688 204.292376,79.2238338 204.12038,82.1808133 C203.429035,82.3546543 202.733769,82.4028811 202.03346,82.3271762 C201.961188,82.0703401 201.929815,81.7865867 201.938779,81.4764768 C202.256999,81.4114266 202.591466,81.3671252 202.942181,81.342451 C202.938259,78.8643754 202.948344,76.3128381 202.972434,73.6889604 C203.339396,73.6289572 203.752858,73.5997968 204.213381,73.5997968 L204.213381,73.5997968 Z" id="Fill-22" fill="#ED3E44"></path>
                    <path d="M131.960011,42.8787259 C134.00099,42.6224506 136.01844,42.3964573 138.013479,42.1996244 C138.24318,41.6119297 138.474002,41.0326466 138.706505,40.4623359 C139.316613,40.53019 139.888065,40.6479532 140.422541,40.8150649 C140.277997,41.2300402 140.139616,41.6259491 140.008518,42.0027915 C143.285403,41.7179166 146.516347,41.4924841 149.701351,41.3264939 C149.76634,41.8597933 149.785949,42.3891672 149.761298,42.9151764 C146.237344,43.3576298 142.766614,43.7215744 139.347987,44.0064494 C139.034809,44.9300498 138.738999,45.8508464 138.460556,46.7688391 C139.973223,46.9757659 141.492613,47.1636264 143.018165,47.3324204 C143.27924,46.2719902 143.601382,45.2760495 143.984591,44.3440374 C144.557164,44.3984328 145.104525,44.5279724 145.624994,44.7332169 C145.414341,45.6248531 145.172875,46.557426 144.901155,47.5286925 C145.942654,47.650942 146.97519,47.7647798 147.99708,47.8707667 C147.985315,48.3586431 147.90744,48.8824093 147.762337,49.4415044 C146.619993,49.3691641 145.511824,49.2822436 144.437831,49.1835467 C144.29945,49.6506744 144.161069,50.1189235 144.023248,50.5877335 C143.408097,50.6286702 142.864658,50.5260479 142.392369,50.2787451 C142.4624,49.8374132 142.543636,49.4117832 142.636077,49.0035372 C140.410776,48.7607205 138.194999,48.4522929 135.989867,48.0804975 C136.408371,46.7116398 136.844244,45.4123184 137.297483,44.1830942 C135.507494,44.3176808 133.732632,44.4326402 131.973456,44.5268508 C131.900624,43.9234543 131.895582,43.3733316 131.960011,42.8787259 L131.960011,42.8787259 Z M132.983582,30.4961991 C137.466118,29.9331785 141.922882,29.4453022 146.353315,29.0331307 L146.443515,29.7795255 C146.486654,30.1350584 146.492817,30.4047924 146.462003,30.5887274 C144.926927,30.7816348 143.50558,30.9599621 142.197403,31.1242698 C142.313935,31.7949597 142.430466,32.4656495 142.546997,33.1357785 C144.583495,32.9882941 146.09168,32.9434319 147.073233,33.0006312 C147.346633,33.6516938 147.556726,34.580902 147.70295,35.7888166 C147.840211,36.9260733 147.888952,37.8395798 147.848615,38.529336 C147.228981,38.8237442 145.18352,39.1888103 141.71279,39.6250952 C136.983745,40.0568938 133.929279,40.1337203 132.549951,39.8561355 C132.371792,39.4097566 132.217164,38.6448562 132.086066,37.5608734 C131.991384,36.7791496 131.968974,35.8622785 132.018836,34.81026 C132.273749,34.7239003 132.558354,34.661654 132.872653,34.6218388 C133.186391,34.5825844 133.468195,34.5741727 133.719746,34.5966038 C133.91079,36.1779962 134.02228,37.4621765 134.053093,38.4497056 C136.38148,38.3740007 138.803987,38.1962342 141.320057,37.9158455 C142.924604,37.7139656 144.498338,37.5530225 146.042378,37.430773 C145.895594,36.5116588 145.75217,35.6194619 145.611548,34.7530607 C144.713473,34.7939975 143.790186,34.8467105 142.842248,34.9111999 C142.925724,35.4596403 143.008081,35.9906965 143.087636,36.5032471 C142.542516,36.6804528 141.982269,36.8043846 141.406335,36.8767249 C141.279159,36.2621128 141.160946,35.6547908 141.052819,35.054759 C140.280799,35.1164445 139.501495,35.1871024 138.714908,35.2672936 C138.822476,35.8673255 138.928362,36.4494125 139.032008,37.012433 C138.46952,37.1918818 137.909273,37.3163744 137.350707,37.3864716 C137.201681,36.7387736 137.052655,36.0983658 136.905871,35.4674912 L135.100755,35.694606 C135.016158,35.4344053 134.956772,35.162989 134.922036,34.8781141 C134.887861,34.5943607 134.88506,34.3509833 134.913633,34.1491034 C135.45203,34.0638652 136.008355,33.9752624 136.581488,33.885538 C136.443107,33.1817623 136.31481,32.4852767 136.196038,31.796642 C135.077225,31.9194523 134.063178,32.0288039 133.154457,32.1246968 C133.071541,32.0271215 133.004871,31.7652385 132.952768,31.3384868 C132.918593,31.0547334 132.928678,30.7732232 132.983582,30.4961991 L132.983582,30.4961991 Z M140.732358,33.2827022 C140.600139,32.6322004 140.485289,31.9794555 140.388366,31.3239066 C139.551357,31.4293328 138.76533,31.5190572 138.030847,31.5930798 C138.166987,32.2794714 138.291922,32.9496004 138.406772,33.6017846 C139.154142,33.4907507 139.929524,33.3836422 140.732358,33.2827022 L140.732358,33.2827022 Z" id="Fill-23" fill="#ED3E44"></path>
                    <path d="M154.821448,45.3147431 C154.890919,45.9461785 154.855623,46.5293871 154.714441,47.0649295 C153.528959,47.073902 152.328349,46.967915 151.113174,46.746408 C151.050986,46.1553485 151.077878,45.5693361 151.194409,44.9894922 C152.302578,44.9967823 153.511591,45.1050124 154.821448,45.3147431 L154.821448,45.3147431 Z M153.476295,39.136658 C154.479137,39.5409785 155.507751,40.2307348 156.561015,41.2042445 C156.309464,41.6730544 155.997967,42.0970021 155.624842,42.4766485 C154.391179,42.0465322 153.386096,41.3735992 152.609033,40.4567281 C152.868988,39.9537107 153.158075,39.5129397 153.476295,39.136658 L153.476295,39.136658 Z M163.322636,33.2692436 C163.169688,34.4687465 163.008337,35.6665672 162.838582,36.8615839 C165.412917,37.6590094 167.939631,38.4979325 170.418164,39.3805962 C170.271939,39.9335228 170.077533,40.4640182 169.834386,40.9720826 C167.356414,40.2935419 164.923261,39.5819153 162.536049,38.8360813 C161.868235,42.9533093 161.036268,47.0710981 160.040709,51.19113 C159.160001,51.3576809 157.88768,51.2135611 156.224307,50.7582098 C156.174445,50.1890207 156.217584,49.6445058 156.354844,49.1263474 C157.04843,49.1863506 157.772269,49.235699 158.526362,49.2755142 C159.267008,45.6416764 159.988606,41.9753134 160.691716,38.2753038 C158.083206,37.4694667 155.531281,36.6232535 153.035941,35.7361036 C153.199533,35.1136406 153.405144,34.5769766 153.651653,34.12499 C156.146993,34.8080169 158.6132,35.5291767 161.051955,36.2890301 C161.253644,35.1770085 161.454212,34.0733984 161.65254,32.9782001 C162.137713,33.0000704 162.694599,33.0970849 163.322636,33.2692436 L163.322636,33.2692436 Z M163.978125,47.9593696 C165.044835,48.3995799 166.136196,49.1611156 167.251088,50.2450984 C167.000097,50.7144692 166.688039,51.1384169 166.314915,51.5180633 C165.001696,51.0470102 163.931064,50.3095879 163.1047,49.3052354 C163.364094,48.8016573 163.655983,48.3535961 163.978125,47.9593696 L163.978125,47.9593696 Z M168.223116,42.8383499 C168.623693,43.3189362 168.847791,43.8152242 168.894292,44.3283356 C167.879124,44.866682 166.831463,45.2833396 165.752427,45.5816732 C165.380423,45.1280042 165.115986,44.6479788 164.958557,44.1410359 C165.893049,43.5628744 166.981609,43.1288326 168.223116,42.8383499 L168.223116,42.8383499 Z M170.04784,34.1636836 C170.50108,35.0659745 170.86356,36.0366803 171.13584,37.0746793 C170.670835,37.3180567 170.152607,37.491337 169.579474,37.5939592 C169.083655,36.6428807 168.721176,35.6727357 168.490914,34.6829635 C168.946395,34.4737935 169.465184,34.3010741 170.04784,34.1636836 L170.04784,34.1636836 Z" id="Fill-24" fill="#ED3E44"></path>
                    <path d="M178.48628,38.8102855 C179.137287,39.0093615 179.690811,39.2863856 180.147973,39.64304 C179.685769,40.6541218 179.227487,41.638847 178.772006,42.5960941 C180.204558,42.9168588 181.642712,43.2746348 183.085348,43.6683006 C182.949208,45.2732456 182.809146,46.7525765 182.664602,48.1046109 C182.485883,49.7774101 182.22873,51.1081349 181.893142,52.0967856 C180.811865,52.1214598 179.537864,52.0519234 178.070577,51.8892979 C178.020155,51.3616063 178.024076,50.8311109 178.081222,50.2972507 C178.838115,50.326972 179.629184,50.3701518 180.453868,50.425108 C180.61802,49.2194365 180.819149,47.5040183 181.057254,45.2799749 C179.971495,45.0158488 178.903104,44.7534049 177.852641,44.4926434 C176.318124,47.5993505 174.664275,50.674654 172.889413,53.718554 C172.287148,53.562097 171.780124,53.2626419 171.367782,52.82131 C172.773442,49.7544182 174.22056,46.8002426 175.709136,43.9582225 C174.555027,43.6683006 173.42781,43.3806217 172.326925,43.0968683 C172.31628,42.8624634 172.331407,42.5579612 172.371745,42.1839227 C172.400317,41.9169926 172.463625,41.653988 172.561669,41.394348 C173.934274,41.6192198 175.304638,41.8698873 176.67108,42.1474721 C177.270544,41.0074116 177.875611,39.8953899 178.48628,38.8102855 L178.48628,38.8102855 Z M188.094516,45.6814916 C190.076669,45.9916015 191.850411,46.3499383 193.415741,46.7576235 C193.092479,49.7824571 192.679577,51.9958456 192.175915,53.39835 C191.799429,53.6092023 190.852051,53.6299511 189.331541,53.4611571 C187.584131,53.2676889 186.128049,52.917203 184.962175,52.4102602 C184.88206,50.510907 184.954331,48.2683579 185.17731,45.6826131 C185.743719,45.6736407 186.315732,45.700558 186.892226,45.7644866 C186.90231,47.4939243 186.859731,49.2985061 186.764489,51.1782321 C188.222812,51.430582 189.571887,51.624611 190.812834,51.7620014 C190.913678,50.8187738 191.105283,49.5985221 191.389888,48.0990032 C190.090676,47.8472141 188.922561,47.5286925 187.885544,47.1439992 C187.940448,46.6280839 188.009918,46.1407683 188.094516,45.6814916 L188.094516,45.6814916 Z" id="Fill-25" fill="#ED3E44"></path>
                    <path d="M200.94322,45.4824156 C203.908607,50.8871886 206.610118,56.3895369 209.047752,61.9900213 C208.553614,62.3926595 208.007374,62.6595896 207.410711,62.7913723 C205.643692,59.6039133 204.00609,56.4478578 202.498465,53.3226451 C200.046825,54.9393665 196.795151,56.5790797 192.743445,58.2417848 C192.30197,57.7236265 192.07507,57.1645314 192.062185,56.5639387 C195.29481,54.5810297 198.487657,52.8986973 201.639607,51.5180633 C200.802598,49.7308655 200.011529,47.9711459 199.266401,46.2394651 C199.852979,45.8917831 200.411545,45.6399941 200.94322,45.4824156" id="Fill-26" fill="#ED3E44"></path>
                    <path d="M30.9525245,113.758752 L139.693099,113.758752 L139.693099,189.482213 L30.9525245,189.482213 L30.9525245,113.758752 Z" id="Fill-27" fill="#F2F2F2"></path>
                    <path d="M85.322812,70.7953488 L11.9483871,114.236534 L158.697237,114.236534 L85.322812,70.7953488" id="Fill-28" fill="#ED3E44"></path>
                    <path d="M86.876937,156.107543 C86.876937,156.107543 84.061696,151.165972 81.3422572,155.181139 C79.5909252,157.767445 81.8274311,160.226454 84.5463097,160.226454 C87.2663087,160.226454 79.5085689,160.566285 80.6979732,165.387288 C81.2492563,167.620304 82.86837,169.33404 86.3648713,167.686476" id="Stroke-29" stroke="#934D2A" stroke-width="3" stroke-linecap="round" stroke-linejoin="round"></path>
                    <path d="M64.7561458,165.765813 C64.7561458,169.41311 60.332996,172.369528 54.8761905,172.369528 C49.4210658,172.369528 44.9962352,169.41311 44.9962352,165.765813 C44.9962352,162.119638 49.4210658,159.162098 54.8761905,159.162098 C60.332996,159.162098 64.7561458,162.119638 64.7561458,165.765813" id="Fill-30" fill="#ED8599"></path>
                    <path d="M67.5556999,160.523666 C69.2644531,158.722449 70.8006503,158.75217 72.9553601,156.42943 C73.6270963,154.030424 74.005263,151.582069 74.9167848,149.185867 C74.005263,146.554139 72.8102562,144.287476 72.9553601,141.942305 C70.3759831,140.381661 67.807811,138.766622 66.7988062,136.826893 C63.318552,137.103917 61.3302356,138.679141 59.8170085,136.236394" id="Stroke-31" stroke="#934D2A" stroke-width="2"></path>
                    <path d="M45.1262125,149.185867 C47.7801024,150.605756 47.6445226,152.980087 47.0803539,156.42943 C49.6933458,156.486629 50.7684597,158.819463 52.2161379,161.578488 C54.5372411,161.032852 56.7631023,162.451619 59.4405225,163.537284 C61.6921551,162.451619 64.2003808,162.165622 66.6665879,161.578488 C68.2694545,159.77671 70.0370337,158.128024 71.8018116,156.42943 C72.4315292,154.030424 72.9021367,151.582069 73.7559531,149.185867 C72.9021367,146.554139 71.6651114,144.287476 71.8018116,141.942305 C69.382105,140.381661 67.068285,139.223095 66.6665879,136.793246 C63.4025891,137.070831 60.8596281,137.276076 59.4405225,134.833329 C56.669541,137.276076 54.8067199,138.475018 52.2161379,136.793246 C51.6738188,140.31549 50.4782518,141.730331 47.0803539,141.942305 C48.6792988,144.80956 47.7801024,146.595075 45.1262125,149.185867" id="Fill-32" fill="#934D2A"></path>
                    <path d="M50.3942148,146.845182 C51.1202948,150.180686 54.9865591,152.166399 59.0259398,151.280371 C63.0658807,150.394903 65.7505841,146.972479 65.0233836,143.636974 C64.296183,140.30147 60.4304789,138.315196 56.390538,139.201225 C52.3511574,140.087253 49.6670142,143.509678 50.3942148,146.845182" id="Fill-33" fill="#FFFFFF"></path>
                    <path d="M62.8412216,155.801359 C63.7387373,157.565004 66.199342,158.108397 68.3344432,157.015442 C70.4695443,155.922487 71.4735069,153.607037 70.575431,151.843392 C69.6784756,150.080868 67.2195517,149.536914 65.0822095,150.629869 C62.9482288,151.722824 61.943706,154.038275 62.8412216,155.801359" id="Fill-34" fill="#FFFFFF"></path>
                    <path d="M53.1758409,155.75874 C52.8525784,157.310411 54.1136944,158.887317 55.9922025,159.280983 C57.8707105,159.674649 59.6567779,158.736468 59.9806006,157.185358 C60.3038631,155.633686 59.0438677,154.057341 57.1631186,153.663114 C55.285731,153.268888 53.4996637,154.207629 53.1758409,155.75874" id="Fill-35" fill="#FFFFFF"></path>
                    <path d="M80.1181176,130.626377 C80.1175574,130.626377 79.5074484,137.129152 73.7929294,133.732523" id="Stroke-36" stroke="#934D2A" stroke-width="3" stroke-linecap="round" stroke-linejoin="round"></path>
                    <path d="M58.7805516,161.770835 L57.8992831,166.62885 C57.8992831,166.62885 53.4946215,167.070742 53.9349756,170.161748 C54.3758899,173.253314 62.0120561,173.795025 62.4529705,170.117446 C62.7633473,167.523851 60.1755666,167.316363 60.1755666,167.316363 L59.9806006,157.185358 L58.7805516,161.770835 L58.7805516,161.770835 Z" id="Fill-37" fill="#FFFFFF"></path>
                    <path d="M58.7805516,161.770835 L57.8992831,166.62885 C57.8992831,166.62885 53.4946215,167.070742 53.9349756,170.161748 C54.3758899,173.253314 62.0120561,173.795025 62.4529705,170.117446 C62.7633473,167.523851 60.1755666,167.316363 60.1755666,167.316363 L59.9806006,157.185358 L58.7805516,161.770835 L58.7805516,161.770835 Z" id="Stroke-38" stroke="#934D2A" stroke-width="3" stroke-linecap="round" stroke-linejoin="round"></path>
                    <path d="M105.283291,165.765813 C105.283291,169.41311 109.707001,172.369528 115.164927,172.369528 C120.619491,172.369528 125.043201,169.41311 125.043201,165.765813 C125.043201,162.119638 120.619491,159.162098 115.164927,159.162098 C109.707001,159.162098 105.283291,162.119638 105.283291,165.765813" id="Fill-39" fill="#ED8599"></path>
                    <path d="M102.484857,160.523666 C100.775544,158.722449 99.2387864,158.75217 97.0840765,156.42943 C96.4123404,154.030424 96.0352942,151.582069 95.1237724,149.185867 C96.0352942,146.554139 97.2291805,144.287476 97.0840765,141.942305 C99.6640138,140.381661 102.232186,138.766622 103.24063,136.826893 C106.722005,137.103917 108.709201,138.679141 110.222988,136.236394" id="Stroke-40" stroke="#934D2A" stroke-width="2"></path>
                    <path d="M124.913784,149.185867 C122.260455,150.605756 122.394914,152.980087 122.959083,156.42943 C120.347211,156.486629 119.270977,158.819463 117.823859,161.578488 C115.502196,161.032852 113.277455,162.451619 110.598914,163.537284 C108.348402,162.451619 105.839056,162.165622 103.37453,161.578488 C101.771663,159.77671 100.002403,158.128024 98.2387455,156.42943 C97.609028,154.030424 97.1378603,151.582069 96.2846041,149.185867 C97.1378603,146.554139 98.3754458,144.287476 98.2387455,141.942305 C100.657332,140.381661 102.972272,139.223095 103.37453,136.793246 C106.636848,137.070831 109.180369,137.276076 110.598914,134.833329 C113.371016,137.276076 115.232717,138.475018 117.823859,136.793246 C118.366738,140.31549 119.561185,141.730331 122.959083,141.942305 C121.360698,144.80956 122.260455,146.595075 124.913784,149.185867" id="Fill-41" fill="#934D2A"></path>
                    <path d="M119.646342,146.845182 C118.919142,150.180686 115.054558,152.166399 111.013497,151.280371 C106.974116,150.394903 104.289413,146.972479 105.016613,143.636974 C105.744374,140.30147 109.609518,138.315196 113.650019,139.201225 C117.68884,140.087253 120.373543,143.509678 119.646342,146.845182" id="Fill-42" fill="#FFFFFF"></path>
                    <path d="M107.198215,155.801359 C106.30182,157.565004 103.841215,158.108397 101.706114,157.015442 C99.5710128,155.922487 98.5670503,153.607037 99.4640057,151.843392 C100.362082,150.080868 102.821005,149.536914 104.957227,150.629869 C107.091768,151.722824 108.095731,154.038275 107.198215,155.801359" id="Fill-43" fill="#FFFFFF"></path>
                    <path d="M116.863596,155.75874 C117.187979,157.310411 115.926863,158.887317 114.047234,159.280983 C112.168726,159.674649 110.382659,158.736468 110.059957,157.185358 C109.736694,155.633686 110.996689,154.057341 112.876318,153.663114 C114.754826,153.268888 116.539773,154.207629 116.863596,155.75874" id="Fill-44" fill="#FFFFFF"></path>
                    <path d="M89.9218793,130.626377 C89.9218793,130.626377 90.5319883,137.129152 96.2465073,133.732523" id="Stroke-45" stroke="#934D2A" stroke-width="3" stroke-linecap="round" stroke-linejoin="round"></path>
                    <path d="M111.259445,161.770835 L112.140154,166.62885 C112.140154,166.62885 116.544815,167.070742 116.105582,170.161748 C115.664667,173.253314 108.027381,173.795025 107.587587,170.117446 C107.27777,167.523851 109.864991,167.316363 109.864991,167.316363 L110.059957,157.185358 L111.259445,161.770835 L111.259445,161.770835 Z" id="Fill-46" fill="#FFFFFF"></path>
                    <path d="M111.259445,161.770835 L112.140154,166.62885 C112.140154,166.62885 116.544815,167.070742 116.105582,170.161748 C115.664667,173.253314 108.027381,173.795025 107.587587,170.117446 C107.27777,167.523851 109.864991,167.316363 109.864991,167.316363 L110.059957,157.185358 L111.259445,161.770835 L111.259445,161.770835 Z" id="Stroke-47" stroke="#934D2A" stroke-width="3" stroke-linecap="round" stroke-linejoin="round"></path>
                    <path d="M156.614239,132.829111 C156.614239,136.542018 153.607393,139.552271 149.897438,139.552271 C146.188043,139.552271 143.181197,136.542018 143.181197,132.829111 C143.181197,129.116203 146.188043,126.10595 149.897438,126.10595 C153.607393,126.10595 156.614239,129.116203 156.614239,132.829111" id="Fill-48" fill="#B5333D"></path>
                </g>
            </g>
        </g>
    </g>
</svg>